<?xml version="1.0" standalone="no"?>
<!DOCTYPE svg PUBLIC "-//W3C//DTD SVG 20010904//EN"
 "http://www.w3.org/TR/2001/REC-SVG-20010904/DTD/svg10.dtd">
<svg version="1.0" xmlns="http://www.w3.org/2000/svg"
 width="990.000000pt" height="990.000000pt" viewBox="0 0 990.000000 990.000000"
 preserveAspectRatio="xMidYMid meet">
<g transform="translate(0.000000,990.000000) scale(0.100000,-0.100000)"
fill="#000000" stroke="none">
<path d="M8695 8703 c-22 -26 -44 -54 -50 -61 -5 -7 -17 -21 -25 -30 -8 -10
-40 -51 -70 -92 -30 -41 -57 -77 -60 -80 -11 -10 -118 -176 -136 -210 -10 -19
-17 -39 -16 -43 1 -5 -2 -6 -7 -3 -6 4 -6 18 -1 36 13 46 15 129 3 141 -13 13
-40 -14 -82 -81 -55 -87 -271 -470 -271 -480 0 -5 -4 -10 -10 -10 -5 0 -10 -5
-10 -11 0 -11 -224 -407 -289 -509 -23 -36 -44 -72 -48 -80 -4 -8 -20 -33 -35
-55 -16 -22 -39 -56 -52 -75 -29 -43 -47 -59 -111 -95 -27 -16 -52 -31 -55
-34 -3 -3 -27 -22 -55 -41 -27 -19 -56 -40 -63 -47 -7 -7 -17 -13 -21 -13 -4
0 -19 -9 -32 -21 -13 -12 -50 -42 -83 -67 -32 -25 -71 -57 -86 -71 -23 -22
-62 -56 -117 -101 -22 -18 -35 -11 -92 48 -81 82 -167 158 -284 249 -102 80
-280 203 -293 203 -4 0 -15 6 -23 14 -18 16 -259 139 -341 175 -148 63 -402
146 -515 167 -5 1 -12 3 -15 4 -3 1 -16 3 -30 6 -14 2 -49 9 -78 15 -58 12
-100 18 -152 24 -19 2 -61 6 -93 10 -94 10 -356 21 -377 15 -3 -1 -41 -3 -85
-4 -44 -2 -109 -7 -145 -11 -36 -4 -78 -9 -95 -11 -16 -1 -30 -3 -30 -4 0 -1
-11 -3 -25 -5 -41 -5 -101 -16 -170 -31 -36 -8 -76 -17 -90 -20 -14 -3 -43
-10 -65 -16 -22 -5 -42 -10 -45 -10 -3 0 -11 -4 -17 -10 -7 -6 -13 -8 -13 -5
0 3 -29 -5 -65 -18 -36 -13 -65 -21 -65 -18 0 3 -6 1 -12 -4 -7 -5 -35 -18
-63 -28 -134 -48 -328 -141 -462 -221 -90 -54 -182 -113 -200 -129 -35 -30
-43 -35 -53 -35 -5 0 -10 -4 -10 -10 0 -5 -4 -10 -10 -10 -5 0 -18 -8 -29 -17
-10 -10 -28 -25 -39 -33 -161 -121 -450 -424 -572 -600 -62 -89 -119 -178
-157 -246 -22 -38 -46 -80 -54 -94 -8 -14 -14 -26 -15 -27 0 -2 -37 13 -81 31
-45 19 -83 32 -86 30 -3 -3 -36 31 -73 75 -38 45 -72 81 -76 81 -5 0 -8 6 -8
14 0 8 -4 16 -8 18 -5 2 -35 39 -66 83 -32 44 -67 91 -77 105 -57 77 -115 162
-148 219 -14 22 -28 41 -33 41 -4 0 -8 7 -8 15 0 8 -4 15 -8 15 -5 0 -15 12
-23 27 -8 15 -40 62 -71 104 -32 42 -58 82 -58 88 0 6 -3 11 -7 11 -5 0 -19
17 -33 37 -27 40 -47 67 -67 88 -7 8 -13 18 -13 22 0 5 -8 18 -18 29 -9 10
-35 42 -56 71 -51 68 -69 62 -65 -21 2 -34 9 -70 16 -82 7 -11 10 -23 7 -27
-6 -6 -18 7 -92 102 -15 18 -52 64 -82 100 -30 37 -73 89 -95 116 -22 26 -50
60 -63 73 -12 14 -32 38 -44 53 -30 37 -55 24 -38 -21 1 -3 2 -8 1 -12 -5 -35
106 -269 198 -418 32 -52 57 -97 55 -99 -2 -2 -29 25 -61 60 -87 96 -253 260
-295 292 -42 32 -62 28 -55 -12 5 -28 29 -93 37 -101 3 -3 16 -27 29 -55 14
-27 34 -60 45 -72 11 -13 16 -23 13 -23 -4 0 1 -8 11 -18 9 -10 33 -38 52 -61
19 -24 43 -53 53 -65 10 -11 37 -43 60 -71 23 -27 60 -70 82 -95 22 -26 51
-60 64 -76 13 -16 33 -40 45 -53 11 -13 14 -20 6 -16 -16 9 -81 56 -90 65 -18
18 -246 169 -260 172 -8 2 -23 11 -34 21 -11 9 -25 17 -32 17 -7 0 -14 5 -16
12 -6 16 -58 1 -58 -17 0 -9 4 -23 9 -33 5 -9 19 -38 31 -63 32 -68 138 -175
321 -324 13 -11 60 -47 104 -79 104 -76 110 -83 50 -53 -375 185 -443 214
-470 203 -18 -7 -19 -43 -2 -72 34 -61 166 -181 247 -226 25 -14 89 -53 142
-87 54 -34 130 -80 170 -102 40 -22 64 -38 53 -35 -144 38 -370 64 -389 45
-22 -21 68 -129 154 -184 25 -16 47 -30 50 -30 3 0 14 -6 25 -12 11 -6 54 -23
95 -37 41 -14 95 -33 120 -42 25 -9 54 -18 64 -20 43 -8 33 -20 -18 -21 -53 0
-106 -22 -106 -43 0 -15 93 -101 135 -123 41 -23 44 -24 135 -55 48 -17 55
-22 52 -43 -2 -23 18 -51 66 -91 46 -37 178 -79 227 -72 14 2 11 -4 -13 -22
-66 -52 -59 -128 20 -200 24 -21 42 -41 41 -45 -5 -14 -15 -141 -19 -234 -8
-176 1 -401 20 -535 4 -25 9 -58 11 -75 11 -76 35 -194 60 -290 26 -99 71
-249 85 -280 5 -11 23 -56 40 -99 39 -101 122 -272 172 -355 21 -34 38 -65 38
-67 0 -9 124 -189 132 -192 4 -2 8 -8 8 -13 0 -8 17 -31 45 -63 6 -6 22 -27
35 -46 83 -119 326 -361 486 -485 21 -16 46 -38 56 -48 10 -9 21 -17 24 -17 4
0 37 -22 74 -50 37 -27 70 -50 72 -50 3 0 36 -20 74 -46 70 -46 402 -214 423
-214 6 0 19 -4 29 -9 21 -12 51 -21 56 -18 1 1 9 -3 17 -9 11 -9 77 -35 99
-39 3 -1 31 -9 62 -18 32 -10 59 -17 60 -17 2 1 16 -3 31 -9 15 -6 41 -13 58
-16 16 -3 54 -12 85 -20 31 -8 59 -14 62 -14 4 1 9 0 12 -1 6 -2 32 -7 90 -16
93 -14 170 -23 260 -30 44 -3 81 -11 91 -20 8 -8 18 -11 22 -8 3 3 18 -3 34
-14 39 -27 91 -53 118 -58 30 -5 72 29 80 66 8 36 25 40 25 6 0 -29 24 -89 42
-103 19 -16 87 -33 93 -23 2 4 17 10 33 13 16 3 33 16 40 29 10 22 11 22 11
-10 1 -44 34 -76 69 -67 40 10 113 54 111 68 -4 33 3 36 26 12 14 -14 29 -25
33 -26 84 -6 150 -3 165 10 22 18 22 33 -4 82 -11 23 -17 39 -12 37 4 -2 21
-10 36 -18 30 -15 31 -15 130 47 32 20 38 29 33 46 -4 12 -9 30 -11 40 -2 9
-7 22 -10 27 -10 16 25 12 41 -5 30 -30 68 -18 116 34 25 27 68 59 94 71 27
12 94 45 149 72 55 28 115 58 133 66 17 9 32 20 32 24 0 4 4 8 10 8 13 0 114
62 118 72 2 4 8 8 13 8 13 0 208 141 255 185 6 6 28 24 49 40 20 17 88 80 149
140 97 96 129 130 215 230 74 85 241 325 241 345 0 6 4 10 8 10 5 0 17 18 27
40 10 22 22 40 27 40 4 0 8 8 8 17 0 9 7 24 15 33 9 10 18 28 20 40 3 13 9 26
14 30 8 5 42 71 46 90 0 3 9 20 18 38 10 17 14 32 10 32 -5 0 -3 4 3 8 9 6 79
178 89 217 1 6 5 19 9 30 5 11 12 31 17 45 13 38 60 221 64 252 2 15 6 31 8
35 3 4 8 30 11 57 4 27 9 52 11 55 1 3 6 35 10 71 4 36 9 79 11 95 12 99 15
159 15 330 0 105 -2 213 -5 240 -10 108 -17 164 -33 250 -8 50 -17 99 -18 110
-2 11 -8 38 -13 60 -6 22 -13 51 -16 65 -7 40 -83 285 -99 322 -26 59 -36 92
-35 120 0 16 -18 55 -45 96 -26 38 -50 77 -54 88 -4 10 -20 41 -35 67 -16 27
-25 47 -21 45 151 -74 171 -81 226 -83 52 -3 62 1 107 34 27 20 50 41 50 47 0
6 6 17 13 23 18 14 15 47 -6 72 -21 24 -21 29 1 29 10 0 28 7 40 16 12 8 22
12 22 8 0 -16 58 49 76 84 10 20 25 44 32 53 15 20 3 32 -65 65 l-46 22 32 7
c78 17 238 98 249 127 2 5 9 14 15 21 14 15 20 35 19 61 -1 18 19 46 34 46 3
0 57 33 120 74 215 142 249 211 92 193 -49 -6 -50 -6 -26 12 12 10 68 46 123
82 55 35 102 67 103 71 2 5 8 8 13 8 6 0 15 4 22 10 7 5 56 42 109 81 110 79
172 135 182 163 6 17 2 18 -41 12 -47 -7 -149 -37 -208 -61 -51 -21 -168 -67
-200 -79 -16 -6 -33 -15 -37 -21 -4 -5 -10 -7 -13 -4 -3 4 19 24 48 47 30 22
61 47 70 56 8 9 20 16 25 16 6 0 12 3 14 8 2 4 28 28 58 52 30 25 59 50 65 55
7 6 33 28 60 50 102 84 260 240 295 290 37 55 44 79 25 95 -13 11 -23 11 -55
0 -22 -7 -40 -17 -40 -22 0 -4 -6 -8 -14 -8 -8 0 -21 -6 -28 -13 -17 -16 -106
-68 -114 -66 -4 0 -10 -3 -13 -9 -3 -5 -55 -42 -116 -82 -104 -69 -110 -68
-40 5 61 63 214 231 237 260 42 53 98 135 98 144 0 5 4 11 9 13 16 5 71 132
62 141 -4 4 -21 2 -37 -5 -31 -13 -149 -94 -199 -137 -17 -14 -51 -42 -75 -61
-54 -43 -119 -100 -186 -162 -58 -55 -77 -63 -37 -16 16 18 44 50 63 72 19 23
60 70 90 106 29 36 62 73 73 84 33 32 82 116 158 271 77 156 98 207 106 257 4
29 4 29 -24 14 -26 -13 -143 -130 -143 -142 0 -3 -11 -15 -25 -28 -14 -13 -25
-26 -25 -30 0 -3 -8 -14 -17 -24 -23 -24 -41 -46 -131 -160 -41 -50 -76 -92
-78 -92 -2 0 6 17 19 38 13 20 30 52 38 70 8 17 17 32 21 32 5 0 8 5 8 11 0 6
20 52 44 102 72 151 114 310 96 361 -5 15 -13 9 -45 -31z"/>
</g>
</svg>
