<?xml version="1.0" encoding="utf-8"?>
<svg version="1.1" id="Layer_1" xmlns="http://www.w3.org/2000/svg" xmlns:xlink="http://www.w3.org/1999/xlink" x="0px" y="0px"
	 viewBox="50 100 495.3 395.3" style="enable-background:new 0 0 595.3 595.3;" xml:space="preserve">
<g>
	<g class="bird">
        <circle cx="285" cy="320" r="150" stroke-width="3" fill="red" />
		<path d="M143,248c0,0-10.2-11.6-11.5-13.9c-1.3-2.4-9.2-12.4-9.8-14.1c-0.6-1.8-21.4-30.1-21.4-30.1s-3-4.4-2.8,1.2
			c0.2,5.6,2.6,8.4,2.6,8.4l-13.4-16.5l-7.5-8.8c0,0-2.5-2.4-0.8,4c1.7,6.4,6.9,14.9,8.5,17.5s5.3,8.8,5.3,8.8l-12.8-13.9l-7.5-6.6
			c0,0-3.9-2.8-0.7,4.8s7.8,12.7,7.8,12.7l17.2,20.3c0,0-17.8-13.3-19.1-12.9c0,0-4.9-3.8-5.3-2.8c-0.4,1-3.2-1.8,0.6,6.2
			s27.5,24.5,27.5,24.5l-19-9.4c0,0-6.7-3.4-8.3-2.8s0,4,0,4s6.9,8.8,12.4,11c0,0,18.3,12,20.7,11.8c0,0-18.3-4-19.7-3.2
			c-1.4,0.8-3.4-0.8-1.9,2.4c1.4,3.2,7.8,8.6,14.7,10.8c6.9,2.2,13.2,4.6,13.2,4.6s-6.8-0.6-8.4,1c-1.6,1.6,1.3,3.2,1.3,3.2
			s2,4.6,14.8,7.8c0,0-2.8,2,3.1,6c5.9,4,12.4,3.4,12.4,3.4s-3.6,0.6-4.4,4.8c-0.8,4.2,5.9,8.2,5.9,8.2s0.7-0.6,4.8,0
			c0,0-3.1,0.2-2.2,4.2c1,4,5.7,6.4,5.7,6.4s3.1,1.2,10.5-5.8c0,0,2.6-1.6,10.1-15.7c0,0,2.2-1.2-1.1,4.2
			c-3.2,5.4-6.6,14.3-6.6,14.3s-4.1,10-3.9,12.4c0.1,2.4,0.6,3.2,0.6,3.2s3.6,1.6,6.3,1.8l2.8-3c0,0-1.8,4.6-1.3,6.4
			c0.5,1.8,3.1,4.2,3.1,4.2s2.3,1.6,3.2,1.2s2.4,0.6,6.2-11.8l-2.3,14.9c0,0-1,4.6,2.3,4.6c0,0,2.4,2,4.2,1.2s4.8-10.4,4.8-10.4
			l-0.7,12.9c0,0,0.4,4.2,4.9,2.8s3.6,0.4,5.7-4.2c0,0-1.2,4.6,1,5.8s4.1,1.8,8.1-1.2c0,0,0,2.8,0.7,3c0,0,3.1,1.2,7.7-1.2
			c0,0-0.7,3.4,0.5,3.4c1.2,0,5,0.6,6.9-1.6c1.9-2.2,1.9-2.2,1.9-2.2s0.5,2.2,1.1,2.2s2.5,0,6.1-2.2v3.9c0,0-0.8,1.7,4.1,1.5
			c0,0,1.6-0.2,1.7-1.2c0,0,0.2,3.4,1.3,3.4c1.1,0,4.5,2,5.5,1.4s1-4.6,1-4.6l0.7,4.7c0,0,0.1,4.3,1.7,4.5c0,0,0,1,6.5,2.4l0.8-2.6
			c0,0,0.1,5.2,1.2,6c1.1,0.8,3.8,4.6,6,5.4c0,0,2.4,2.6-1.1-11.8l3.8,11.9c0,0,2.2,3.2,4.2,3.6s2.2-1,2.2-1l-0.7-3l1.7,5.2
			c0,0,1.6,5.6,2.5,5.6c0,0,1.9,3.4,3.7,3.6s2.2,0,2.2,0l2.9,8.8c0,0-0.8-3-1.2,5.2s0.4,15.7,0.4,15.7l-4.3,11.6
			c0,0-3.9,10.8-5.9,19.5c0,0-2.6,5-2.6,5.6s-1.6,2,2.2,3.8h2.4c0,0-1.1,3.6,1.1,4.6c2.2,1,6,2.8,6,2.8s-0.7,5.2,3,4.4
			c0,0,3.9,3.4,7.3,3.6c3.4,0.2,4.7-8.6,4.7-8.6s-1.3,7.2,1.9,10c3.2,2.8,7.8,0,7.8,0l1.2-2.4c0,0-0.7,3.8,1.3,5.2s7.5-2.6,7.5-2.6
			v-2.6l2.8,2.6l7.8,0.2c0,0,2.4-1,1.3-3.4s-2-3.6-2-3.6l3.7,2l6.8-4c0,0,2.3,0-5.4-12.7l6.9,8.6c0,0,1.8,2.2,5.1-1.8l4.2-4.4
			c0,0,0.7-1.4-4.5-6.8c0,0,5.4,3.2,6.7,1.2c1.3-2,3.9-4.6,3.9-4.6s1.3-2.6-0.7-4.2l3.7-2.8c0,0,1.3-1.8-1.7-4.2
			c-3-2.4-17-20.9-17-20.9L317.7,397c0,0-1-5.4-3.2-7.2c0,0,1-3.6-0.1-4.2c0,0,7.7-0.6,7.3-8.2c0,0-0.4,5.4,5.5,0c0,0,3,1,3.1-10.8
			c0,0,2.8,1.8,7.2-4.6c0,0,1.1,5.4-0.2-11.2c0,0,2.8,12.7,4.5,8.6l5.3-5c0,0,1.2-2.4-1.1-7.4c0,0,1.4,4.4,7.9-4.6
			c0,0,0.6-0.6-1.2-7c0,0,0.5,4.8,6.9-2.6c0,0,1.7-3.4,0.7-4.2c0,0,2,2,6-2.8c0,0,1.2-1.2,0-6.6c0,0,6.1-0.6,5.1-5.2
			c0,0,10.5,2.8,8.1-5.6c0,0,8.9-1.2,6-6.2c0,0,10.4,0.2,6.6-7.8c0,0,3.8,2.8,8.7-3.2c0,0,2.5,0.8-2.6-9.8c0,0,4.1,10.4,10.7,0.8
			c0,0,2.4,0.2-4.4-12.4c0,0,6.7,11.8,12,1.4c0,0,2.2-1-1.7-6.8c0,0,4.2,4,9.1-2.2c0,0,2.5-3.4-19.4-24.3c0,0,17.8,16.3,26.3,12.7
			c0,0,10.1-5.8,3.4-9.8c0,0,7.1,0.2,9.7-8.6c0,0,3.6,0-5.1-4c0,0,16.1-3.5,15.6-11c0-0.3-0.1-0.7-0.2-1c0,0,32-17.9,9.5-14.1
			c0,0,63.7-39.6,3.5-13.9c0,0,46.4-35.1,31.5-34.1c0,0-20,11.6-23.7,15.7l16.5-17.9c0,0,17-22.5,4.4-13.9s-25.7,21.5-25.7,21.5
			l17.1-20.1c0,0,24.4-43.8,0.4-14.7l-11,13.7l-2.4,3.4c0,0,16.3-26.5,12.7-34.5c0,0-18.4,22.1-20.9,30.1c0,0,4.7-19.3-3.5-6.2
			c-8.1,13.1-34.1,62.8-38.7,64.3c-4.5,1.6-23.2,16.3-24.9,18.5c-1.7,2.2-20.6,13.1-24.4,18.7c-3.8,5.6-17.4,15.5-17.4,15.5
			l-19.3,14.5c0,0-5.9,5.4-7.2,10.8S311.4,307,311.4,307s-10.1,14.1-13.4,14.1c0,0-2.6-3-5.1-0.4l-6.3-1.4c0,0-9.9,1.2-10.8,2.4
			c0,0-2.2-0.2-2.8,0.8s-3.6-1.6-4.4,3c0,0-20.7-22.5-31.1-36.7c0,0-5.6-4-7.9-2.8c0,0-29.7-6.4-35.7-10.8
			c-6-4.4-19.6-10.2-19.6-10.2S146.1,246.4,143,248z"/>
	</g>
</g>
</svg>
