<svg width="200" height="200" viewBox="0 0 5000 5000" xmlns="http://www.w3.org/2000/svg">
    <defs>
        <style type="text/css">
            .star { stroke:#FFED00; stroke-width:150; fill:none;}
            .circle { stroke:#FFED00; stroke-width:150; fill:none;}
            .txt { fill:#E31E24; fill-rule:nonzero; }</style>
    </defs>
    <g id="p5-logo">

        <!-- star -->
        <polygon class="star" id="star" points="2468.999267578125,365.999755859375 2947.99951171875,1850.999755859375 4506.99951171875,1847.999755859375 3243.99951171875,2761.99951171875 3728.99951171875,4243.99951171875 2468.999267578125,3324.99951171875 1208.999267578125,4243.99951171875 1693.999267578125,2761.99951171875 429.999267578125,1847.999755859375 1989.999267578125,1850.999755859375 " />

        <!-- circle -->
        <path class="circle" id="circle" d="m2491.53121,173.9994c1271.90591,0 2303.46839,1039.38175 2303.46839,2322.00026c0,1282.61851 -1031.56248,2322.00026 -2303.46839,2322.00026c-1272.96938,0 -2304.53186,-1039.38175 -2304.53186,-2322.00026c0,-1282.61851 1031.56248,-2322.00026 2304.53186,-2322.00026z" />

        <!-- text -->
        <g id="text">
            <path class="txt" id="p" d="m2147.99933,2924.99969l0,-848l320,0c56,0 99,3 129,8c42,7 77,20 105,40c28,19 51,47 68,81c17,35 26,74 26,116c0,72 -23,133 -69,182c-46,50 -129,75 -249,75l-218,0l0,346l-112,0zm112,-445l219,0c73,0 124,-14 155,-41c30,-27 46,-65 46,-114c0,-35 -9,-65 -27,-91c-18,-25 -42,-42 -71,-50c-19,-5 -54,-7 -105,-7l-217,0l0,303z" />
            <path class="txt" id="five" d="m2688.99933,2838.99969l60,-6c2,14 7,24 15,32c9,8 18,12 29,12c13,0 23,-5 32,-15c9,-10 13,-26 13,-46c0,-20 -4,-34 -13,-44c-9,-10 -20,-14 -33,-14c-18,0 -33,7 -47,22l-48,-7l30,-162l158,0l0,56l-112,0l-10,53c14,-6 27,-10 41,-10c27,0 49,10 68,29c18,20 27,45 27,76c0,25 -7,48 -22,69c-20,27 -48,41 -84,41c-29,0 -53,-8 -71,-23c-18,-16 -29,-37 -33,-63z" />
        </g>
    </g>
</svg>