<?xml version="1.0" standalone="no"?>
<!DOCTYPE svg PUBLIC "-//W3C//DTD SVG 20010904//EN"
 "http://www.w3.org/TR/2001/REC-SVG-20010904/DTD/svg10.dtd">
<svg version="1.0" xmlns="http://www.w3.org/2000/svg"
 width="260.000000pt" height="260.000000pt" viewBox="0 0 260.000000 260.000000"
 preserveAspectRatio="xMidYMid meet">
<metadata>
Created by potrace 1.11, written by Peter Selinger 2001-2013
</metadata>
<g transform="translate(0.000000,260.000000) scale(0.100000,-0.100000)"
fill="#000000" stroke="none">
<path d="M0 1300 l0 -1300 1300 0 1300 0 0 1300 0 1300 -1300 0 -1300 0 0
-1300z m1296 929 c126 -23 216 -86 265 -184 80 -163 46 -382 -78 -495 -97 -89
-191 -110 -495 -110 l-207 0 -3 -261 c-3 -260 -3 -261 -27 -280 -33 -27 -86
-25 -117 6 l-25 25 3 602 c3 582 4 604 23 637 38 65 68 71 351 71 139 0 277
-5 310 -11z m582 -920 c2 -14 -3 -31 -11 -37 -8 -7 -70 -12 -163 -14 l-149 -3
-11 -100 c-6 -55 -10 -102 -8 -103 1 -2 16 6 32 18 37 27 130 37 192 20 57
-15 124 -80 139 -135 39 -140 -30 -280 -155 -315 -59 -17 -159 -8 -211 19 -71
35 -112 108 -81 139 23 23 55 14 77 -21 28 -46 86 -71 151 -65 87 9 140 68
140 158 0 93 -58 152 -149 152 -56 0 -95 -18 -134 -61 -30 -34 -44 -38 -72
-17 -19 14 -19 18 -3 186 13 132 21 177 34 191 16 18 31 19 198 17 l181 -3 3
-26z"/>
<path d="M793 2079 c-10 -10 -13 -74 -13 -251 l0 -238 218 0 c262 0 305 9 368
74 52 54 68 111 62 212 -6 93 -38 145 -113 183 -48 25 -55 26 -280 29 -175 2
-233 0 -242 -9z"/>
</g>
</svg>
