<?xml version="1.0" standalone="no"?>
<!DOCTYPE svg PUBLIC "-//W3C//DTD SVG 20010904//EN"
 "http://www.w3.org/TR/2001/REC-SVG-20010904/DTD/svg10.dtd">
<svg version="1.0" xmlns="http://www.w3.org/2000/svg"
 width="700.000000pt" height="700.000000pt" viewBox="0 0 700.000000 700.000000"
 preserveAspectRatio="xMidYMid meet">
<metadata>
Created by potrace 1.11, written by Peter Selinger 2001-2013
</metadata>
<g transform="translate(0.000000,700.000000) scale(0.100000,-0.100000)"
fill="#000000" stroke="none">
<path d="M3238 6905 c-2 -2 -38 -6 -80 -10 -43 -3 -88 -8 -100 -10 -13 -2 -41
-6 -63 -9 -372 -43 -852 -217 -1206 -436 -141 -87 -309 -212 -302 -224 3 -6 3
-8 -2 -4 -24 22 -338 -279 -501 -482 -136 -169 -331 -471 -332 -514 0 -5 -4
-12 -9 -15 -28 -19 -166 -348 -220 -526 -26 -88 -78 -300 -87 -355 -6 -41 -25
-172 -31 -215 -9 -64 -19 -235 -19 -335 0 -114 12 -362 19 -382 2 -7 6 -35 9
-63 25 -231 114 -557 219 -805 48 -113 155 -323 205 -402 9 -14 30 -48 46 -75
160 -264 429 -555 756 -817 8 -6 58 -41 110 -77 388 -269 818 -441 1305 -524
11 -1 49 -6 85 -10 36 -4 76 -9 90 -12 42 -9 551 -11 615 -3 33 5 83 11 110
15 380 47 836 199 1150 385 28 16 63 37 80 46 88 50 300 202 361 260 18 17 35
29 37 27 7 -6 318 305 378 378 314 381 509 756 643 1239 50 179 101 533 82
559 -8 11 -8 13 2 7 13 -8 14 5 15 239 1 225 -20 427 -63 631 -12 55 -23 110
-26 123 -6 30 -47 168 -72 246 -120 362 -337 744 -597 1051 -81 95 -273 284
-375 368 -52 43 -104 85 -115 94 -70 58 -342 229 -460 288 -122 62 -174 85
-330 149 -28 12 -134 48 -145 50 -3 0 -27 8 -55 17 -142 45 -288 78 -457 102
-21 4 -53 8 -70 11 -93 14 -588 31 -600 20z m-1281 -3867 c-3 -8 -6 -5 -6 6
-1 11 2 17 5 13 3 -3 4 -12 1 -19z"/>
</g>
</svg>
